<svg xmlns="http://www.w3.org/2000/svg" viewBox="0 0 64 64" fill="none">
  <rect width="64" height="64" rx="18" fill="url(#bg)" />
  <path
    d="M18 20.5C18 18.567 19.567 17 21.5 17H42.5C44.433 17 46 18.567 46 20.5V34.2C46 36.133 44.433 37.7 42.5 37.7H31.2L24.8 44.1C24.107 44.793 22.922 44.302 22.922 43.322V37.7H21.5C19.567 37.7 18 36.133 18 34.2V20.5Z"
    fill="white"
    fill-opacity="0.96"
  />
  <path
    d="M25 25H39"
    stroke="#1D5FB3"
    stroke-width="3.2"
    stroke-linecap="round"
  />
  <path
    d="M25 31H35"
    stroke="#F28B23"
    stroke-width="3.2"
    stroke-linecap="round"
  />
  <circle cx="42.5" cy="44.5" r="8.5" fill="#0F2B54" />
  <path
    d="M39.7 44.7L41.7 46.7L45.8 42.6"
    stroke="white"
    stroke-width="2.6"
    stroke-linecap="round"
    stroke-linejoin="round"
  />
  <defs>
    <linearGradient id="bg" x1="8" y1="6" x2="56" y2="58" gradientUnits="userSpaceOnUse">
      <stop stop-color="#1E5FAE" />
      <stop offset="1" stop-color="#123662" />
    </linearGradient>
  </defs>
</svg>
